<svg xmlns="http://www.w3.org/2000/svg" xmlns:xlink="http://www.w3.org/1999/xlink" id="Layer_1" x="0px" y="0px" viewBox="0 0 479.3 136.1" xml:space="preserve">
<g id="XMLID_79_">
	<path id="XMLID_78_" fill="#091B30" d="M136.3,54.4c0-4.7,3.8-8.6,8.6-8.6h33.4v-13h-35.4c-10.8,0-19.6,8.8-19.6,19.6v12.2v13v25.9   h13V76.9h25.4v-13h-25.4L136.3,54.4L136.3,54.4z"></path>
	<path id="XMLID_77_" fill="#091B30" d="M312.9,74.9c0,0,0-0.2,0-0.3c0-8.6,7.2-15.6,15.9-15.6s15.6,7,15.6,15.6c0,0.1,0,0.2,0,0.3   h0v28.6h13V74.9c0,0,0-0.2,0-0.3c0-16-12.7-28.9-28.6-28.9c-5.9,0-11.3,1.8-15.9,4.8v-4.8h-13v57.8h13L312.9,74.9L312.9,74.9z"></path>
	<path id="XMLID_128_" fill="#091B30" d="M392.6,103.5c16,0,28.9-12.9,28.9-28.9s-12.9-28.9-28.9-28.9s-28.9,12.9-28.9,28.9   S376.6,103.5,392.6,103.5z M392.6,59c8.6,0,15.6,7,15.6,15.6s-7,15.6-15.6,15.6s-15.6-7-15.6-15.6S383.9,59,392.6,59z"></path>
	<path id="XMLID_125_" fill="#091B30" d="M200,45.7c-16,0-28.9,12.9-28.9,28.9s12.9,28.9,28.9,28.9c11.1,0,18.1-3.6,23.4-9.2   l-10.5-8.2c-2.8,2.5-7.1,4.4-12.9,4.4c-6.3,0-12.3-4.1-14.8-9.4h37.9h5.1c0.5-2.1,0.7-4.3,0.7-6.5C228.9,58.6,215.9,45.7,200,45.7z    M185.3,68.1c2.5-5.4,8.4-9.5,14.7-9.5c6.3,0,12.1,4.1,14.6,9.5H185.3z"></path>
	<path id="XMLID_122_" fill="#091B30" d="M278.9,50.3c-4.5-2.9-9.9-4.6-15.6-4.6c-16,0-28.9,12.9-28.9,28.9s12.9,28.9,28.9,28.9   c5.8,0,11.1-1.7,15.6-4.6v8.4c0,8.6-7,15.6-15.6,15.6c-8.4,0-15.3-6.6-15.6-14.9l-12.8,4.2c2.4,13.6,14.2,24,28.5,24   c16,0,28.6-12.9,28.6-28.9V45.7h-13L278.9,50.3L278.9,50.3z M263.3,90.2c-8.6,0-15.6-7-15.6-15.6s7-15.6,15.6-15.6   s15.6,7,15.6,15.6S271.9,90.2,263.3,90.2z"></path>
	<path id="XMLID_120_" opacity="0.62" fill="#091B30" d="M314.6,108.8v2.5h-5.3v16.5h-3.1v-16.5h-5.3   v-2.5H314.6z"></path>
	<path id="XMLID_117_" opacity="0.62" fill="#091B30" d="M330.5,121h-11.4c0,1.5,0.5,2.6,1.3,3.4   c0.8,0.7,1.8,1.1,2.9,1.1c1,0,1.9-0.3,2.6-0.8c0.7-0.5,1.1-1.2,1.3-2.1h3.3c-0.2,1-0.6,2-1.2,2.8s-1.4,1.4-2.5,1.9   c-1,0.5-2.1,0.7-3.4,0.7c-1.4,0-2.7-0.3-3.8-0.9c-1.1-0.6-2-1.5-2.6-2.6c-0.6-1.1-0.9-2.5-0.9-4.1c0-1.5,0.3-2.9,0.9-4   s1.5-2,2.6-2.6s2.4-0.9,3.8-0.9c1.5,0,2.7,0.3,3.8,0.9c1.1,0.6,1.9,1.4,2.5,2.5s0.9,2.2,0.9,3.5C330.6,120.2,330.6,120.6,330.5,121   z M327,117.2c-0.4-0.6-0.9-1.1-1.5-1.4c-0.6-0.3-1.3-0.5-2.1-0.5c-1.2,0-2.2,0.4-3,1.1c-0.8,0.7-1.3,1.8-1.3,3.3h8.4   C327.6,118.6,327.4,117.8,327,117.2z"></path>
	<path id="XMLID_115_" opacity="0.62" fill="#091B30" d="M344.9,114.3c1.3,1,2,2.4,2.3,4.1H344   c-0.2-0.9-0.6-1.7-1.3-2.2s-1.5-0.8-2.6-0.8c-1.2,0-2.2,0.4-3,1.3c-0.8,0.8-1.2,2.1-1.2,3.7s0.4,2.8,1.2,3.7c0.8,0.8,1.8,1.3,3,1.3   c1,0,1.9-0.3,2.6-0.8s1.1-1.3,1.3-2.2h3.3c-0.3,1.7-1.1,3.1-2.3,4.1c-1.3,1-2.8,1.5-4.8,1.5c-1.4,0-2.7-0.3-3.8-0.9   c-1.1-0.6-2-1.5-2.6-2.6c-0.6-1.1-0.9-2.5-0.9-4.1c0-1.5,0.3-2.9,0.9-4s1.5-2,2.6-2.6s2.4-0.9,3.8-0.9   C342.1,112.8,343.7,113.3,344.9,114.3z"></path>
	<path id="XMLID_113_" opacity="0.62" fill="#091B30" d="M362.6,114.4c1,1.1,1.6,2.7,1.6,4.8v8.6h-3.1   v-8.3c0-1.3-0.3-2.4-1-3.1s-1.6-1.1-2.8-1.1c-1.2,0-2.2,0.4-2.9,1.2s-1.1,1.9-1.1,3.4v7.9h-3.1v-19.9h3.1v8.3c0.4-1.1,1.1-2,2-2.6   s2-0.9,3.2-0.9C360.2,112.8,361.6,113.3,362.6,114.4z"></path>
	<path id="XMLID_111_" opacity="0.62" fill="#091B30" d="M380.2,114.4c1,1.1,1.6,2.7,1.6,4.8v8.6h-3.1   v-8.3c0-1.3-0.3-2.4-1-3.1s-1.6-1.1-2.8-1.1c-1.2,0-2.2,0.4-2.9,1.2s-1.1,1.9-1.1,3.4v7.9h-3.1V113h3.1v3.3c0.4-1.1,1.1-2,2-2.6   s2-0.9,3.2-0.9C377.8,112.8,379.1,113.3,380.2,114.4z"></path>
	<path id="XMLID_108_" opacity="0.62" fill="#091B30" d="M395.9,113.7c1.1,0.6,2,1.5,2.7,2.6   c0.6,1.1,1,2.5,1,4c0,1.6-0.3,2.9-1,4.1c-0.6,1.1-1.5,2-2.7,2.6s-2.4,0.9-3.9,0.9s-2.7-0.3-3.9-0.9c-1.1-0.6-2-1.5-2.7-2.6   c-0.6-1.2-1-2.5-1-4s0.3-2.9,1-4c0.6-1.1,1.5-2,2.7-2.6s2.4-0.9,3.9-0.9C393.5,112.8,394.8,113.1,395.9,113.7z M389.9,116   c-0.7,0.4-1.2,0.9-1.6,1.6c-0.4,0.7-0.6,1.6-0.6,2.7c0,1.1,0.2,2,0.6,2.7c0.4,0.7,0.9,1.3,1.6,1.6s1.4,0.5,2.2,0.5   c0.8,0,1.5-0.2,2.2-0.5c0.7-0.4,1.2-0.9,1.6-1.6c0.4-0.7,0.6-1.6,0.6-2.7c0-1.1-0.2-2-0.6-2.7c-0.4-0.7-0.9-1.3-1.6-1.6   s-1.4-0.5-2.2-0.5C391.3,115.5,390.5,115.6,389.9,116z"></path>
	<path id="XMLID_106_" opacity="0.62" fill="#091B30" d="M405.6,107.9v19.9h-3.1v-19.9H405.6z"></path>
	<path id="XMLID_103_" opacity="0.62" fill="#091B30" d="M420,113.7c1.1,0.6,2,1.5,2.7,2.6   c0.6,1.1,1,2.5,1,4c0,1.6-0.3,2.9-1,4.1c-0.6,1.1-1.5,2-2.7,2.6s-2.4,0.9-3.9,0.9s-2.7-0.3-3.9-0.9c-1.1-0.6-2-1.5-2.7-2.6   c-0.6-1.2-1-2.5-1-4s0.3-2.9,1-4c0.6-1.1,1.5-2,2.7-2.6s2.4-0.9,3.9-0.9C417.5,112.8,418.8,113.1,420,113.7z M413.9,116   c-0.7,0.4-1.2,0.9-1.6,1.6c-0.4,0.7-0.6,1.6-0.6,2.7c0,1.1,0.2,2,0.6,2.7c0.4,0.7,0.9,1.3,1.6,1.6s1.4,0.5,2.2,0.5   c0.8,0,1.5-0.2,2.2-0.5c0.7-0.4,1.2-0.9,1.6-1.6c0.4-0.7,0.6-1.6,0.6-2.7c0-1.1-0.2-2-0.6-2.7c-0.4-0.7-0.9-1.3-1.6-1.6   s-1.4-0.5-2.2-0.5C415.3,115.5,414.6,115.6,413.9,116z"></path>
	<path id="XMLID_100_" opacity="0.62" fill="#091B30" d="M435.9,113.8c1,0.7,1.6,1.5,2,2.6V113h3.1v15   c0,1.4-0.3,2.6-0.9,3.7c-0.6,1.1-1.4,1.9-2.4,2.5s-2.3,0.9-3.8,0.9c-2.1,0-3.8-0.5-5-1.5s-2.1-2.3-2.4-4h3c0.3,0.9,0.7,1.6,1.5,2.1   c0.7,0.5,1.6,0.7,2.7,0.7c1.2,0,2.2-0.4,3-1.1s1.2-1.8,1.2-3.3v-3.6c-0.4,1.1-1.1,2-2,2.6c-1,0.7-2.1,1-3.4,1   c-1.3,0-2.4-0.3-3.5-0.9s-1.8-1.5-2.4-2.6c-0.6-1.1-0.9-2.5-0.9-4.1c0-1.5,0.3-2.9,0.9-4c0.6-1.1,1.4-2,2.4-2.6s2.2-0.9,3.5-0.9   C433.9,112.8,435,113.1,435.9,113.8z M430.2,116.8c-0.8,0.9-1.2,2.1-1.2,3.6c0,1.5,0.4,2.7,1.2,3.6s1.9,1.3,3.3,1.3   c0.9,0,1.6-0.2,2.3-0.6c0.7-0.4,1.2-1,1.6-1.7c0.4-0.7,0.6-1.6,0.6-2.6c0-1-0.2-1.8-0.6-2.6s-0.9-1.3-1.6-1.7s-1.5-0.6-2.3-0.6   C432.1,115.5,431,115.9,430.2,116.8z"></path>
	<path id="XMLID_97_" opacity="0.62" fill="#091B30" d="M444.8,107.4c0.4-0.3,0.8-0.5,1.4-0.5   c0.6,0,1.1,0.2,1.4,0.5s0.5,0.8,0.5,1.3c0,0.5-0.2,0.9-0.5,1.3c-0.4,0.3-0.9,0.5-1.4,0.5s-1.1-0.2-1.4-0.5   c-0.4-0.3-0.5-0.7-0.5-1.3C444.3,108.2,444.5,107.7,444.8,107.4z M447.8,113v14.8h-3.1V113H447.8z"></path>
	<path id="XMLID_94_" opacity="0.62" fill="#091B30" d="M465.1,121h-11.4c0,1.5,0.5,2.6,1.3,3.4   c0.8,0.7,1.8,1.1,2.9,1.1c1,0,1.9-0.3,2.6-0.8c0.7-0.5,1.1-1.2,1.3-2.1h3.3c-0.2,1-0.6,2-1.2,2.8s-1.4,1.4-2.5,1.9   c-1,0.5-2.1,0.7-3.4,0.7c-1.4,0-2.7-0.3-3.8-0.9c-1.1-0.6-2-1.5-2.6-2.6c-0.6-1.1-0.9-2.5-0.9-4.1c0-1.5,0.3-2.9,0.9-4   s1.5-2,2.6-2.6s2.4-0.9,3.8-0.9c1.5,0,2.7,0.3,3.8,0.9c1.1,0.6,1.9,1.4,2.5,2.5s0.9,2.2,0.9,3.5C465.2,120.2,465.2,120.6,465.1,121   z M461.6,117.2c-0.4-0.6-0.9-1.1-1.5-1.4c-0.6-0.3-1.3-0.5-2.1-0.5c-1.2,0-2.2,0.4-3,1.1c-0.8,0.7-1.3,1.8-1.3,3.3h8.4   C462.2,118.6,462,117.8,461.6,117.2z"></path>
	<path id="XMLID_92_" opacity="0.62" fill="#091B30" d="M477.2,114.1c1,0.9,1.7,2.1,1.9,3.6h-2.9   c-0.1-0.8-0.5-1.5-1-1.9c-0.6-0.5-1.3-0.7-2.2-0.7c-0.8,0-1.4,0.2-1.8,0.6c-0.4,0.4-0.6,0.9-0.6,1.5c0,0.5,0.1,0.8,0.5,1.1   c0.3,0.3,0.7,0.5,1.1,0.7c0.5,0.2,1.1,0.3,2,0.5c1.1,0.3,2,0.5,2.7,0.8s1.3,0.7,1.8,1.3c0.5,0.6,0.7,1.4,0.7,2.4   c0,1.2-0.5,2.2-1.4,3c-0.9,0.8-2.2,1.2-3.8,1.2c-1.8,0-3.3-0.4-4.5-1.3c-1.1-0.9-1.8-2.1-2.1-3.6h3c0.1,0.8,0.5,1.5,1.1,2   c0.6,0.5,1.5,0.8,2.5,0.8c0.7,0,1.3-0.2,1.7-0.6s0.6-0.9,0.6-1.5c0-0.5-0.2-0.9-0.5-1.2c-0.3-0.3-0.7-0.5-1.2-0.7   c-0.5-0.2-1.1-0.3-2-0.5c-1.1-0.3-2-0.5-2.6-0.8c-0.7-0.3-1.3-0.7-1.7-1.2s-0.7-1.3-0.7-2.3c0-1.3,0.5-2.3,1.4-3.1s2.2-1.2,3.9-1.2   C474.8,112.8,476.2,113.3,477.2,114.1z"></path>
	<g id="XMLID_82_">
		
			<linearGradient id="XMLID_7_" gradientUnits="userSpaceOnUse" x1="98.4487" y1="135.868" x2="22.1977" y2="23.9045" gradientTransform="matrix(1 0 0 -1 0 148.3909)">
			<stop offset="0" style="stop-color:#40C3D6"></stop>
			<stop offset="1" style="stop-color:#0774B4"></stop>
		</linearGradient>
		<path id="XMLID_37_" fill="url(#XMLID_7_)" d="M61.8,54.8L42.9,66.9c-4.8,3.1-7.7,8.4-7.7,14.1v27.2c0,3.3,3.7,5.3,6.4,3.5    l11.2-7.2c6.3-4.1,11-10.3,13.1-17.6l0,0c1.6-5.6,2.5-11.5,2.5-17.3V58.4C68.4,55,64.7,52.9,61.8,54.8z"></path>
		
			<linearGradient id="XMLID_8_" gradientUnits="userSpaceOnUse" x1="116.262" y1="123.7365" x2="40.011" y2="11.773" gradientTransform="matrix(1 0 0 -1 0 148.3909)">
			<stop offset="0" style="stop-color:#40C3D6"></stop>
			<stop offset="1" style="stop-color:#0774B4"></stop>
		</linearGradient>
		<path id="XMLID_36_" fill="url(#XMLID_8_)" d="M103,28.4L87,38.7c-3,1.9-4.8,5.3-4.8,8.9v17.6c0,2.6,1,5.1,2.8,6.9l0,0    c4.1,4.2,10.7,5,15.7,1.8l3.2-2.1c3.1-2,4.9-5.3,4.9-9V31.6C108.8,28.6,105.5,26.8,103,28.4z"></path>
		
			<linearGradient id="XMLID_9_" gradientUnits="userSpaceOnUse" x1="122.3313" y1="119.603" x2="46.0804" y2="7.6396" gradientTransform="matrix(1 0 0 -1 0 148.3909)">
			<stop offset="0" style="stop-color:#40C3D6"></stop>
			<stop offset="1" style="stop-color:#0774B4"></stop>
		</linearGradient>
		<path id="XMLID_35_" fill="url(#XMLID_9_)" d="M92.1,84.6c-4.9,1.7-10.3-0.2-13.2-4.6l0,0c-0.6-0.9-2-0.5-2.1,0.6L76.3,90    c-0.1,1.2,0.7,2.2,1.9,2.4l0,0c3.8,0.8,7.7-0.2,10.7-2.7l5.3-4.4c0.6-0.5,0.2-1.4-0.6-1.3L92.1,84.6z"></path>
		
			<linearGradient id="XMLID_10_" gradientUnits="userSpaceOnUse" x1="93.0178" y1="139.5666" x2="16.7668" y2="27.6031" gradientTransform="matrix(1 0 0 -1 0 148.3909)">
			<stop offset="0" style="stop-color:#40C3D6"></stop>
			<stop offset="1" style="stop-color:#0774B4"></stop>
		</linearGradient>
		<path id="XMLID_34_" fill="url(#XMLID_10_)" d="M112.2,7.5L98.3,1.7C92.2-1,85.1-0.5,79.5,3.2L61.7,14.6c-2.6,1.7-3.8,4.8-2.9,7.8    l0,0c0.6,2,2,3.5,3.8,4.4l9,4c3.1,1.4,6.7,1.1,9.6-0.8l24.4-15.5c2.7-1.7,6.1-2,9.1-0.7l2.3,1C117,11.6,115.1,8.7,112.2,7.5z"></path>
		
			<linearGradient id="XMLID_11_" gradientUnits="userSpaceOnUse" x1="79.8001" y1="148.7622" x2="3.2343" y2="36.3364" gradientTransform="matrix(1 0 0 -1 0 148.3909)">
			<stop offset="0" style="stop-color:#40C3D6"></stop>
			<stop offset="1" style="stop-color:#0774B4"></stop>
		</linearGradient>
		<path id="XMLID_1_" fill="url(#XMLID_11_)" d="M62.5,35.1l-4.7-2c-4.5-2-9.5-2.9-14.4-2.5l0,0c-5.1,0.4-10,2-14.3,4.8l-14.7,9.1    C5.4,50.2,0,60.2,0,70.8v39.5c0,6.9,4.6,12.9,11.2,14.7l9.2,2.5c3.6,1,7.5,0.4,10.6-1.6l1.1-0.7l-3-1.3c-2.7-1.2-4.4-3.8-4.4-6.8    V78.4c0-7.7,3.9-14.9,10.4-19l27.9-18.2C65.4,39.7,65.1,36.2,62.5,35.1z"></path>
	</g>
</g>
<g id="XMLID_80_" display="none">
	<path id="XMLID_31_" display="inline" fill="#FFFFFF" d="M136.7,61.4c0-4.7,3.8-8.6,8.6-8.6h33.4v-13h-35.4   c-10.8,0-19.5,8.8-19.5,19.5v12.2v13v25.9h13V83.9h25.4v-13h-25.4V61.4z"></path>
	<path id="XMLID_30_" display="inline" fill="#FFFFFF" d="M313.1,81.8c0,0,0-0.2,0-0.3c0-8.6,7.2-15.6,15.9-15.6   c8.6,0,15.6,7,15.6,15.6c0,0.1,0,0.2,0,0.3h0v28.6h13V81.8c0,0,0-0.2,0-0.3c0-15.9-12.7-28.9-28.6-28.9c-5.9,0-11.3,1.8-15.9,4.8   v-4.8h-13v57.7h13V81.8z"></path>
	<path id="XMLID_75_" display="inline" fill="#FFFFFF" d="M392.6,110.4c15.9,0,28.9-12.9,28.9-28.9s-12.9-28.9-28.9-28.9   s-28.9,12.9-28.9,28.9C363.8,97.5,376.7,110.4,392.6,110.4z M392.6,65.9c8.6,0,15.6,7,15.6,15.6s-7,15.6-15.6,15.6   s-15.6-7-15.6-15.6S384,65.9,392.6,65.9z"></path>
	<path id="XMLID_72_" display="inline" fill="#FFFFFF" d="M200.3,52.7c-15.9,0-28.9,12.9-28.9,28.9s12.9,28.9,28.9,28.9   c11.1,0,18.1-3.6,23.4-9.1l-10.5-8.2c-2.8,2.5-7.1,4.4-12.9,4.4c-6.3,0-12.3-4.1-14.8-9.4h37.8h5.1c0.5-2.1,0.7-4.3,0.7-6.5   C229.1,65.6,216.2,52.7,200.3,52.7z M185.6,75.1c2.5-5.4,8.3-9.5,14.6-9.5s12.1,4.1,14.6,9.5H185.6z"></path>
	<path id="XMLID_69_" display="inline" fill="#FFFFFF" d="M279.1,57.3c-4.5-2.9-9.9-4.6-15.6-4.6c-15.9,0-28.9,12.9-28.9,28.9   s12.9,28.9,28.9,28.9c5.8,0,11.1-1.7,15.6-4.6v8.3c0,8.6-7,15.6-15.6,15.6c-8.4,0-15.2-6.6-15.6-14.9l-12.8,4.2   c2.3,13.6,14.2,23.9,28.4,23.9c15.9,0,28.6-12.9,28.6-28.9V52.7h-13L279.1,57.3L279.1,57.3z M263.5,97.2c-8.6,0-15.6-7-15.6-15.6   s7-15.6,15.6-15.6s15.6,7,15.6,15.6C279.1,90.2,272.1,97.2,263.5,97.2z"></path>
	<path id="XMLID_67_" display="inline" opacity="0.62" fill="#FFFFFF" d="M314.8,115.8v2.5h-5.3v16.5   h-3.1v-16.5h-5.3v-2.5H314.8z"></path>
	<path id="XMLID_64_" display="inline" opacity="0.62" fill="#FFFFFF" d="M330.7,127.9h-11.4   c0,1.5,0.5,2.6,1.3,3.4c0.8,0.7,1.8,1.1,2.9,1.1c1,0,1.9-0.3,2.6-0.8s1.1-1.2,1.3-2.1h3.3c-0.2,1-0.6,2-1.2,2.8   c-0.6,0.8-1.4,1.4-2.4,1.9c-1,0.5-2.1,0.7-3.4,0.7c-1.4,0-2.7-0.3-3.8-0.9c-1.1-0.6-2-1.5-2.6-2.6s-0.9-2.5-0.9-4.1   c0-1.5,0.3-2.9,0.9-4c0.6-1.1,1.5-2,2.6-2.6s2.4-0.9,3.8-0.9c1.5,0,2.7,0.3,3.8,0.9c1.1,0.6,1.9,1.4,2.5,2.5   c0.6,1.1,0.9,2.2,0.9,3.5C330.8,127.1,330.7,127.5,330.7,127.9z M327.2,124.1c-0.4-0.6-0.9-1.1-1.5-1.4c-0.6-0.3-1.3-0.5-2.1-0.5   c-1.2,0-2.2,0.4-3,1.1c-0.8,0.7-1.2,1.8-1.3,3.3h8.4C327.7,125.6,327.6,124.7,327.2,124.1z"></path>
	<path id="XMLID_62_" display="inline" opacity="0.62" fill="#FFFFFF" d="M345.1,121.2   c1.3,1,2,2.4,2.3,4.1h-3.3c-0.2-0.9-0.6-1.7-1.3-2.2s-1.5-0.8-2.6-0.8c-1.2,0-2.2,0.4-3,1.3c-0.8,0.8-1.2,2.1-1.2,3.7   s0.4,2.8,1.2,3.7c0.8,0.8,1.8,1.3,3,1.3c1,0,1.9-0.3,2.6-0.8s1.1-1.3,1.3-2.2h3.3c-0.3,1.7-1.1,3.1-2.3,4.1c-1.3,1-2.8,1.5-4.8,1.5   c-1.4,0-2.7-0.3-3.8-0.9c-1.1-0.6-2-1.5-2.6-2.6s-0.9-2.5-0.9-4.1c0-1.5,0.3-2.9,0.9-4c0.6-1.1,1.5-2,2.6-2.6s2.4-0.9,3.8-0.9   C342.2,119.7,343.8,120.2,345.1,121.2z"></path>
	<path id="XMLID_60_" display="inline" opacity="0.62" fill="#FFFFFF" d="M362.7,121.3   c1,1.1,1.6,2.7,1.6,4.8v8.6h-3.1v-8.3c0-1.3-0.3-2.4-1-3.1s-1.6-1.1-2.8-1.1c-1.2,0-2.2,0.4-2.9,1.2c-0.7,0.8-1.1,1.9-1.1,3.4v7.9   h-3.1v-19.9h3.1v8.3c0.4-1.1,1.1-2,2-2.6s2-0.9,3.2-0.9C360.3,119.7,361.7,120.2,362.7,121.3z"></path>
	<path id="XMLID_58_" display="inline" opacity="0.62" fill="#FFFFFF" d="M380.3,121.3   c1,1.1,1.6,2.7,1.6,4.8v8.6h-3.1v-8.3c0-1.3-0.3-2.4-1-3.1s-1.6-1.1-2.8-1.1c-1.2,0-2.2,0.4-2.9,1.2c-0.7,0.8-1.1,1.9-1.1,3.4v7.9   h-3.1v-14.8h3.1v3.3c0.4-1.1,1.1-2,2-2.6s2-0.9,3.2-0.9C377.9,119.7,379.2,120.2,380.3,121.3z"></path>
	<path id="XMLID_55_" display="inline" opacity="0.62" fill="#FFFFFF" d="M396,120.6   c1.1,0.6,2,1.5,2.7,2.6c0.6,1.1,1,2.5,1,4c0,1.6-0.3,2.9-1,4.1c-0.6,1.1-1.5,2-2.7,2.6c-1.1,0.6-2.4,0.9-3.9,0.9s-2.7-0.3-3.9-0.9   c-1.1-0.6-2-1.5-2.7-2.6s-1-2.5-1-4s0.3-2.9,1-4c0.6-1.1,1.5-2,2.7-2.6c1.1-0.6,2.4-0.9,3.9-0.9C393.6,119.7,394.9,120,396,120.6z    M390,122.9c-0.7,0.4-1.2,0.9-1.6,1.6c-0.4,0.7-0.6,1.6-0.6,2.7c0,1.1,0.2,2,0.6,2.7c0.4,0.7,0.9,1.3,1.6,1.6   c0.7,0.4,1.4,0.5,2.2,0.5c0.8,0,1.5-0.2,2.2-0.5s1.2-0.9,1.6-1.6c0.4-0.7,0.6-1.6,0.6-2.7c0-1.1-0.2-2-0.6-2.7s-0.9-1.3-1.6-1.6   s-1.4-0.5-2.2-0.5C391.4,122.4,390.6,122.6,390,122.9z"></path>
	<path id="XMLID_53_" display="inline" opacity="0.62" fill="#FFFFFF" d="M405.7,114.8v19.9h-3.1v-19.9   H405.7z"></path>
	<path id="XMLID_50_" display="inline" opacity="0.62" fill="#FFFFFF" d="M420,120.6   c1.1,0.6,2,1.5,2.7,2.6c0.6,1.1,1,2.5,1,4c0,1.6-0.3,2.9-1,4.1c-0.6,1.1-1.5,2-2.7,2.6s-2.4,0.9-3.9,0.9s-2.7-0.3-3.9-0.9   c-1.1-0.6-2-1.5-2.7-2.6s-1-2.5-1-4s0.3-2.9,1-4c0.6-1.1,1.5-2,2.7-2.6c1.1-0.6,2.4-0.9,3.9-0.9C417.6,119.7,418.9,120,420,120.6z    M414,122.9c-0.7,0.4-1.2,0.9-1.6,1.6c-0.4,0.7-0.6,1.6-0.6,2.7c0,1.1,0.2,2,0.6,2.7c0.4,0.7,0.9,1.3,1.6,1.6   c0.7,0.4,1.4,0.5,2.2,0.5c0.8,0,1.5-0.2,2.2-0.5s1.2-0.9,1.6-1.6c0.4-0.7,0.6-1.6,0.6-2.7c0-1.1-0.2-2-0.6-2.7s-0.9-1.3-1.6-1.6   s-1.4-0.5-2.2-0.5C415.4,122.4,414.6,122.6,414,122.9z"></path>
	<path id="XMLID_47_" display="inline" opacity="0.62" fill="#FFFFFF" d="M436,120.7   c1,0.7,1.6,1.5,2,2.6v-3.4h3.1v14.9c0,1.4-0.3,2.6-0.9,3.7c-0.6,1.1-1.4,1.9-2.4,2.5s-2.3,0.9-3.8,0.9c-2.1,0-3.8-0.5-5-1.5   c-1.3-1-2.1-2.3-2.4-4h3c0.3,0.9,0.7,1.6,1.5,2.1s1.6,0.7,2.7,0.7c1.2,0,2.2-0.4,3-1.1s1.2-1.8,1.2-3.3v-3.6c-0.4,1.1-1.1,2-2,2.6   s-2.1,1-3.4,1c-1.3,0-2.4-0.3-3.5-0.9s-1.8-1.5-2.4-2.6c-0.6-1.1-0.9-2.5-0.9-4.1c0-1.5,0.3-2.9,0.9-4c0.6-1.1,1.4-2,2.4-2.6   c1-0.6,2.2-0.9,3.5-0.9C433.9,119.7,435,120.1,436,120.7z M430.2,123.7c-0.8,0.9-1.2,2.1-1.2,3.6s0.4,2.7,1.2,3.6   c0.8,0.9,1.9,1.3,3.3,1.3c0.9,0,1.6-0.2,2.3-0.6c0.7-0.4,1.2-1,1.6-1.7c0.4-0.7,0.6-1.6,0.6-2.6c0-1-0.2-1.8-0.6-2.6   c-0.4-0.7-0.9-1.3-1.6-1.7s-1.5-0.6-2.3-0.6C432.1,122.4,431,122.8,430.2,123.7z"></path>
	<path id="XMLID_44_" display="inline" opacity="0.62" fill="#FFFFFF" d="M444.9,114.3   c0.4-0.3,0.8-0.5,1.4-0.5c0.6,0,1.1,0.2,1.4,0.5s0.5,0.8,0.5,1.3c0,0.5-0.2,0.9-0.5,1.3c-0.4,0.3-0.9,0.5-1.4,0.5s-1.1-0.2-1.4-0.5   c-0.4-0.3-0.5-0.7-0.5-1.3S444.5,114.7,444.9,114.3z M447.8,119.9v14.8h-3.1v-14.8H447.8z"></path>
	<path id="XMLID_41_" display="inline" opacity="0.62" fill="#FFFFFF" d="M465.1,127.9h-11.4   c0,1.5,0.5,2.6,1.3,3.4c0.8,0.7,1.8,1.1,2.9,1.1c1,0,1.9-0.3,2.6-0.8s1.1-1.2,1.3-2.1h3.3c-0.2,1-0.6,2-1.2,2.8   c-0.6,0.8-1.4,1.4-2.4,1.9c-1,0.5-2.1,0.7-3.4,0.7c-1.4,0-2.7-0.3-3.8-0.9c-1.1-0.6-2-1.5-2.6-2.6s-0.9-2.5-0.9-4.1   c0-1.5,0.3-2.9,0.9-4c0.6-1.1,1.5-2,2.6-2.6s2.4-0.9,3.8-0.9c1.5,0,2.7,0.3,3.8,0.9c1.1,0.6,1.9,1.4,2.5,2.5   c0.6,1.1,0.9,2.2,0.9,3.5C465.3,127.1,465.2,127.5,465.1,127.9z M461.7,124.1c-0.4-0.6-0.9-1.1-1.5-1.4c-0.6-0.3-1.3-0.5-2.1-0.5   c-1.2,0-2.2,0.4-3,1.1c-0.8,0.7-1.2,1.8-1.3,3.3h8.4C462.2,125.6,462,124.7,461.7,124.1z"></path>
	<path id="XMLID_39_" display="inline" opacity="0.62" fill="#FFFFFF" d="M477.2,121.1   c1,0.9,1.7,2.1,1.9,3.6h-2.9c-0.1-0.8-0.5-1.4-1-1.9c-0.6-0.5-1.3-0.7-2.2-0.7c-0.8,0-1.4,0.2-1.8,0.6c-0.4,0.4-0.6,0.9-0.6,1.5   c0,0.5,0.1,0.8,0.5,1.1c0.3,0.3,0.7,0.5,1.1,0.7c0.5,0.2,1.1,0.3,2,0.5c1.1,0.3,2,0.5,2.7,0.8s1.3,0.7,1.8,1.3s0.7,1.4,0.7,2.4   c0,1.2-0.5,2.2-1.4,3c-0.9,0.8-2.2,1.1-3.8,1.1c-1.8,0-3.3-0.4-4.5-1.3s-1.8-2.1-2-3.6h3c0.1,0.8,0.5,1.5,1.1,2   c0.6,0.5,1.5,0.8,2.5,0.8c0.7,0,1.3-0.2,1.7-0.6c0.4-0.4,0.6-0.9,0.6-1.5c0-0.5-0.2-0.9-0.5-1.2s-0.7-0.5-1.2-0.7   c-0.5-0.2-1.1-0.3-2-0.5c-1.1-0.3-2-0.5-2.6-0.8c-0.7-0.3-1.2-0.7-1.7-1.2c-0.5-0.6-0.7-1.3-0.7-2.3c0-1.3,0.5-2.3,1.4-3.1   s2.2-1.2,3.9-1.2C474.8,119.7,476.2,120.2,477.2,121.1z"></path>
	<g id="XMLID_33_" display="inline">
		
			<linearGradient id="XMLID_12_" gradientUnits="userSpaceOnUse" x1="98.8488" y1="128.8407" x2="22.6783" y2="16.9953" gradientTransform="matrix(1 0 0 -1 0 148.3909)">
			<stop offset="0" style="stop-color:#40C3D6"></stop>
			<stop offset="1" style="stop-color:#0774B4"></stop>
		</linearGradient>
		<path id="XMLID_5_" fill="url(#XMLID_12_)" d="M62.3,61.7L43.4,73.9c-4.8,3.1-7.7,8.4-7.7,14.1v27.2c0,3.3,3.7,5.3,6.4,3.5    l11.2-7.2c6.3-4.1,11-10.3,13.1-17.6l0,0c1.6-5.6,2.4-11.5,2.4-17.3V65.3C68.9,62,65.1,59.9,62.3,61.7z"></path>
		
			<linearGradient id="XMLID_13_" gradientUnits="userSpaceOnUse" x1="116.6515" y1="116.7166" x2="40.4809" y2="4.8711" gradientTransform="matrix(1 0 0 -1 0 148.3909)">
			<stop offset="0" style="stop-color:#40C3D6"></stop>
			<stop offset="1" style="stop-color:#0774B4"></stop>
		</linearGradient>
		<path id="XMLID_4_" fill="url(#XMLID_13_)" d="M103.4,35.4l-16,10.3c-3,1.9-4.8,5.3-4.8,8.9v17.6c0,2.6,1,5.1,2.8,6.9l0,0    c4.1,4.2,10.7,5,15.6,1.8l3.2-2.1c3.1-2,4.9-5.3,4.9-9V38.6C109.1,35.6,105.9,33.8,103.4,35.4z"></path>
		
			<linearGradient id="XMLID_14_" gradientUnits="userSpaceOnUse" x1="122.6991" y1="112.5978" x2="46.5285" y2="0.7524" gradientTransform="matrix(1 0 0 -1 0 148.3909)">
			<stop offset="0" style="stop-color:#40C3D6"></stop>
			<stop offset="1" style="stop-color:#0774B4"></stop>
		</linearGradient>
		<path id="XMLID_3_" fill="url(#XMLID_14_)" d="M92.4,91.5c-4.9,1.7-10.3-0.2-13.1-4.6l0,0c-0.6-0.9-2-0.5-2.1,0.6l-0.6,9.4    c-0.1,1.2,0.7,2.2,1.9,2.4l0,0c3.8,0.8,7.7-0.2,10.7-2.7l5.3-4.4c0.6-0.5,0.2-1.4-0.6-1.3L92.4,91.5z"></path>
		
			<linearGradient id="XMLID_15_" gradientUnits="userSpaceOnUse" x1="93.4234" y1="132.5356" x2="17.2528" y2="20.6902" gradientTransform="matrix(1 0 0 -1 0 148.3909)">
			<stop offset="0" style="stop-color:#40C3D6"></stop>
			<stop offset="1" style="stop-color:#0774B4"></stop>
		</linearGradient>
		<path id="XMLID_2_" fill="url(#XMLID_15_)" d="M112.6,14.5L98.7,8.7C92.6,6,85.5,6.6,79.9,10.2L62.2,21.6    c-2.6,1.7-3.8,4.8-2.9,7.8l0,0c0.6,1.9,2,3.5,3.8,4.4l9,4c3.1,1.4,6.7,1.1,9.6-0.8l24.3-15.5c2.7-1.7,6.1-2,9.1-0.7l2.3,1    C117.4,18.6,115.5,15.8,112.6,14.5z"></path>
		
			<linearGradient id="XMLID_16_" gradientUnits="userSpaceOnUse" x1="80.2161" y1="141.724" x2="3.731" y2="29.4167" gradientTransform="matrix(1 0 0 -1 0 148.3909)">
			<stop offset="0" style="stop-color:#40C3D6"></stop>
			<stop offset="1" style="stop-color:#0774B4"></stop>
		</linearGradient>
		<path id="XMLID_32_" fill="url(#XMLID_16_)" d="M63,42.1l-4.7-2c-4.5-2-9.5-2.8-14.4-2.5l0,0c-5.1,0.4-10,2-14.3,4.8l-14.7,9.1    c-9,5.8-14.4,15.7-14.4,26.4v39.5c0,6.9,4.6,12.9,11.2,14.7l9.2,2.5c3.6,1,7.5,0.4,10.6-1.6l1.1-0.7l-3-1.3    c-2.7-1.2-4.4-3.8-4.4-6.8V85.4c0-7.7,3.9-14.8,10.4-19l27.9-18.2C65.8,46.7,65.5,43.2,63,42.1z"></path>
	</g>
</g>
</svg>